{"title":"Iron Man 2 CAM XViD - IMAGiNE","uid":5528235,"size":1484414715,"categoryP":"video","categoryS":"movies","magnet":"?xt=urn:btih:c22d7fd9a2a0a9bbedb3453a0040e97ab094e925&amp;dn=Iron+Man+2+CAM+XViD+-+IMAGiNE&amp;tr=udp%3A%2F%2Ftracker.openbittorrent.com%3A80&amp;tr=udp%3A%2F%2Fopen.demonii.com%3A1337&amp;tr=udp%3A%2F%2Ftracker.coppersurfer.tk%3A6969&amp;tr=udp%3A%2F%2Fexodus.desync.com%3A6969","seeders":1,"leechers":0,"uploader":"TvTeam","files":6,"time":1272845948,"description":". \n &lt;a href=&quot;\nhttp://www.torrentday.com&quot; rel=&quot;nofollow&quot; target=&quot;_NEW&quot;&gt;\nhttp://www.torrentday.com&lt;/a&gt;   -    Your Key To The Scene.\n\nNow TvTeam with [No-RAR] Releases.\n\n(((((((((((((= Enjoy No RAR releases =))))))))))))))))))))\n\n...................................NFO:....................................\n\n\n\n\nIron Man 2 CAM XViD - IMAGiNE\n\n\nRipper ...........: IMAGiNE                                        IMDB Rating.......:7.9/10                             \nVideo Codec.......: XVID                                         Release Date......:02/05/10\nAudio Codec.......:MP3                                           Theatre Date......:07/05/10\nAudio Bitrate.....:128                                              Runtime.......:1h 52mn\nSubtitles.........:NIL                                                 Language..........:ENGLISH\nResolution...... 720 x 288                                      IMDb URL..........:http://www.imdb.com/title/tt1228705/\n\n\n[color=yellow]DETAILS:[/color]\n\nVideo\nID                               : 0\nFormat                           : MPEG-4 Visual\nFormat profile                   : Advanced Simple@L5\nFormat settings, BVOP            : Yes\nFormat settings, QPel            : No\nFormat settings, GMC             : No warppoints\nFormat settings, Matrix          : Default (MPEG)\nMuxing mode                      : Packed bitstream\nCodec ID                         : XVID\nCodec ID/Hint                    : XviD\nDuration                         : 1h 52mn\nBit rate                         : 1 608 Kbps\nWidth                            : 720 pixels\nHeight                           : 288 pixels\nDisplay aspect ratio             : 2.500\nFrame rate                       : 25.000 fps\nResolution                       : 24 bits\nColorimetry                      : 4:2:0\nScan type                        : Progressive\nBits/(Pixel*Frame)               : 0.310\nStream size                      : 1.26 GiB (100%)\nWriting library                  : XviD 1.2.1 (UTC 2008-12-04)\n\n\nAudio\nFormat                           : MPEG Audio\nFormat version                   : Version 1\nFormat profile                   : Layer 3\nMode                             : Joint stereo\nFormat_Settings_ModeExtension    : MS Stereo\nDuration                         : 1h 52mn\nBit rate mode                    : Constant\nBit rate                         : 128 Kbps\nChannel(s)                       : 2 channels\nSampling rate                    : 48.0 KHz\nStream size                      : 103 MiB (100%) \n\n\n\n[color=yellow]NOTES:[/color]\n\nIMAGiNE bringing you another release.....Iron Man 2\n\nSources used....russian TS and the audio off the no grp DVDR.....many thanks to both.\nAudio wise for cam is half decent ....better then alot of cam audios out there so ;-)\nThe video needed some TLC,too colourful,rgb colours off,dark etc.....but we fixed what we could.\nAs for the audio we ran it through a few filters nothing major but tried to give it a bit more life ....\nNow regarding some sweet direct audio.....if you can it shall be here for next weekend,your call  \nif you can wait ;-)\n\nEnjoy","torrent":{"xt":"urn:btih:c22d7fd9a2a0a9bbedb3453a0040e97ab094e925","amp;dn":"Iron+Man+2+CAM+XViD+-+IMAGiNE","amp;tr":["udp%3A%2F%2Ftracker.openbittorrent.com%3A80","udp%3A%2F%2Fopen.demonii.com%3A1337","udp%3A%2F%2Ftracker.coppersurfer.tk%3A6969","udp%3A%2F%2Fexodus.desync.com%3A6969"],"infoHash":"c22d7fd9a2a0a9bbedb3453a0040e97ab094e925","infoHashBuffer":{"type":"Buffer","data":[194,45,127,217,162,160,169,187,237,179,69,58,0,64,233,122,176,148,233,37]},"announce":[],"urlList":[]}}